<svg xmlns="http://www.w3.org/2000/svg" viewBox="-121 283.2 30 30" enable-background="new -121 283.2 30 30"><path fill="#fff" d="M-93 290.7c-4.1-7.2-13.3-9.6-20.5-5.5-7.2 4.1-9.6 13.3-5.5 20.5 4.1 7.2 13.3 9.6 20.5 5.5 7.2-4.1 9.7-13.3 5.5-20.5zm-7 17.9c-5.7 3.3-13.1 1.3-16.4-4.4-3.3-5.7-1.3-13.1 4.4-16.4 5.7-3.3 13.1-1.3 16.4 4.4 3.3 5.8 1.4 13.1-4.4 16.4zm-.7-11.9h-6.3l1.7-1.7c.6-.6.6-1.5 0-2.1-.6-.6-1.5-.6-2.1 0l-4.2 4.2c-.6.6-.6 1.5 0 2.1l4.2 4.2c.6.6 1.5.6 2.1 0 .6-.6.6-1.5 0-2.1l-1.7-1.7h6.3c.8 0 1.5-.7 1.5-1.5 0-.7-.7-1.4-1.5-1.4z"/></svg>